 <svg version="1.1" xmlns="http://www.w3.org/2000/svg" xmlns:xlink="http://www.w3.org/1999/xlink" width="100px" height="100px" viewBox="0,0,256,256">
          <g
            fill="#cc5de8"
            fill-rule="nonzero"
            stroke="none"
            stroke-width="1"
            stroke-linecap="butt"
            stroke-linejoin="miter"
            stroke-miterlimit="10"
            stroke-dasharray=""
            stroke-dashoffset="0"
            font-family="none"
            font-weight="none"
            font-size="none"
            text-anchor="none"
            style="mix-blend-mode: normal"
          >
            <g transform="scale(5.12,5.12)">
              <path
                d="M12,0c-1.09375,0 -2,0.90625 -2,2v20c0,1.09375 0.90625,2 2,2h30c1.09375,0 2,-0.90625 2,-2v-20c0,-1.09375 -0.90625,-2 -2,-2zM12,2h30v20h-30zM22.5,4c-1.36719,0 -2.5,1.13281 -2.5,2.5c0,1.36719 1.13281,2.5 2.5,2.5h9c1.36719,0 2.5,-1.13281 2.5,-2.5c0,-1.36719 -1.13281,-2.5 -2.5,-2.5zM22.5,6h9c0.28516,0 0.5,0.21484 0.5,0.5c0,0.28516 -0.21484,0.5 -0.5,0.5h-9c-0.28516,0 -0.5,-0.21484 -0.5,-0.5c0,-0.28516 0.21484,-0.5 0.5,-0.5zM13.46875,28c-2.83594,0 -4.14453,0.6875 -5.5625,1.25c-2.70703,1.07422 -7.34375,3.3125 -7.34375,3.3125c-0.36719,0.125 -0.625,0.45313 -0.66797,0.83594c-0.04297,0.38672 0.14063,0.76172 0.47266,0.96484c0.32812,0.19922 0.74609,0.19141 1.07031,-0.01953c0,0 4.67188,-2.24219 7.21875,-3.25c1.55859,-0.61719 2.26563,-1.09375 4.8125,-1.09375c5.61719,0 5.44922,2.52734 7.75,3.90625c0.82813,0.49609 2.12891,0.87891 3.59375,1.25c0.125,0.07031 0.26172,0.11328 0.40625,0.125c0.01172,0.00391 0.01953,-0.00391 0.03125,0c1.65234,0.40234 3.40625,0.71875 4.75,0.71875c0.58594,0 1.08984,0.06641 1.5,0.15625c0.01953,0 0.04297,0 0.0625,0c0.375,0.08984 0.66797,0.21484 0.875,0.34375c0.4375,0.27734 0.5625,0.50391 0.5625,1c0,0.58203 -0.125,0.76953 -0.5625,1.03125c-0.4375,0.26172 -1.28516,0.46875 -2.4375,0.46875h-5.8125c-2.44922,0 -5.90625,-0.96875 -5.90625,-0.96875c-0.53516,-0.15625 -1.09375,0.15234 -1.25,0.6875c-0.15625,0.53516 0.15234,1.09375 0.6875,1.25c0,0 3.52734,1.03125 6.46875,1.03125h5.8125c1.35156,0 2.5,-0.19531 3.4375,-0.75c0.26953,-0.16016 0.50781,-0.35937 0.71875,-0.59375c0.08984,-0.03125 0.17188,-0.07031 0.25,-0.125l9,-6.0625c1.55859,-0.92578 2.64063,-1.16797 3.28125,-1.15625c0.64063,0.01172 0.85938,0.20313 1.0625,0.46875c0.29688,0.38672 0.31641,0.60547 0.125,1.0625c-0.19141,0.45703 -0.72266,1.09766 -1.6875,1.78125c-1.19922,0.85156 -14.41406,9.63281 -15.96875,10.53125c-1.14844,0.66406 -2.06641,1.38672 -3.125,1.6875c-1.05859,0.30078 -2.32422,0.27734 -4.375,-0.71875c-1.36719,-0.66406 -7.15625,-3.6875 -9.03125,-4.65625c-1.03516,-0.53516 -1.88672,-0.83203 -2.78125,-0.78125c-0.89453,0.05078 -1.67578,0.46094 -2.46875,0.96875l-2.6875,1.75c-0.46484,0.30078 -0.59766,0.92578 -0.29687,1.39063c0.30078,0.46484 0.92578,0.59766 1.39063,0.29688l2.6875,-1.75c0.69922,-0.44531 1.09375,-0.63672 1.46875,-0.65625c0.375,-0.01953 0.88672,0.10156 1.78125,0.5625c1.85938,0.96094 7.55859,3.95703 9.0625,4.6875c2.36328,1.14844 4.25781,1.24609 5.78125,0.8125c1.52344,-0.43359 2.61328,-1.30469 3.59375,-1.875c2.08203,-1.20703 14.62109,-9.55859 16.125,-10.625c1.14844,-0.8125 1.95703,-1.66406 2.375,-2.65625c0.41797,-0.99219 0.28906,-2.16406 -0.375,-3.03125c-0.52344,-0.68359 -1.44141,-1.22656 -2.625,-1.25c-0.83203,-0.01562 -1.83984,0.28906 -2.9375,0.78125c-0.04297,-0.20312 0.05859,-0.42969 -0.03125,-0.625c-0.33984,-0.73828 -1.11719,-1.23828 -1.96875,-1.40625c-1.11328,-0.21875 -2.375,0.11719 -3.625,0.6875c-0.08984,-0.27344 -0.16016,-0.56641 -0.34375,-0.78125c-0.53516,-0.64062 -1.3125,-0.85156 -2.03125,-0.90625c-1.43359,-0.10937 -2.92187,0.35547 -4,1c-1.49609,0.89063 -5.96875,3.71094 -6.625,4.125c-1.33594,-0.35937 -2.55078,-0.78516 -2.90625,-1c-0.91406,-0.55078 -2.47656,-4.1875 -8.78125,-4.1875zM35.625,30.0625c0.39844,0.03125 0.60156,0.15234 0.65625,0.21875c0.04297,0.05078 0.125,0.14063 0.09375,0.4375l-4.9375,3.375c-0.45312,-0.07031 -0.92187,-0.09375 -1.4375,-0.09375c-0.52734,0 -1.24609,-0.09375 -2.03125,-0.21875c1.73828,-1.09375 3.89063,-2.43359 4.84375,-3c0.67188,-0.39844 2.01172,-0.78125 2.8125,-0.71875zM40.75,31c0.26563,-0.02344 0.48438,-0.03516 0.65625,0c0.41406,0.08203 0.46484,0.16797 0.53125,0.3125c0.04688,0.10547 0.07031,0.375 0.03125,0.71875l-7.0625,4.75c-0.17187,-0.72266 -0.58984,-1.36328 -1.1875,-1.8125l4.125,-2.84375c0.12109,-0.0625 0.22656,-0.14453 0.3125,-0.25c0.89453,-0.54297 1.88281,-0.80859 2.59375,-0.875z"
              ></path>
            </g>
          </g>
        </svg>